<?xml version="1.0" encoding="UTF-8" standalone="no"?>
<!DOCTYPE svg PUBLIC "-//W3C//DTD SVG 1.1//EN" "http://www.w3.org/Graphics/SVG/1.1/DTD/svg11.dtd">
<svg version="1.1" xmlns="http://www.w3.org/2000/svg" xmlns:xlink="http://www.w3.org/1999/xlink" preserveAspectRatio="xMidYMid meet" viewBox="0 0 225.85 225.85" width="225.85" height="225.85"><defs><path d="M122.19 0.37L126.74 0.84L131.24 1.48L135.68 2.29L140.06 3.28L144.37 4.44L148.62 5.76L152.79 7.24L156.88 8.87L160.89 10.66L164.82 12.6L168.66 14.69L172.41 16.92L176.06 19.29L179.62 21.79L183.07 24.42L186.41 27.18L189.65 30.07L192.77 33.07L195.78 36.2L198.67 39.43L201.43 42.78L204.06 46.23L206.56 49.79L208.93 53.44L211.16 57.19L213.25 61.03L215.19 64.96L216.98 68.97L218.61 73.06L220.09 77.23L221.41 81.47L222.57 85.79L223.56 90.17L224.37 94.61L225.01 99.11L225.48 103.66L225.76 108.27L225.85 112.92L225.76 117.58L225.48 122.19L225.01 126.74L224.37 131.24L223.56 135.68L222.57 140.06L221.41 144.37L220.09 148.62L218.61 152.79L216.98 156.88L215.19 160.89L213.25 164.82L211.16 168.66L208.93 172.41L206.56 176.06L204.06 179.62L201.43 183.07L198.67 186.41L195.78 189.65L192.77 192.77L189.65 195.78L186.41 198.67L183.07 201.43L179.62 204.06L176.06 206.56L172.41 208.93L168.66 211.16L164.82 213.25L160.89 215.19L156.88 216.98L152.79 218.61L148.62 220.09L144.37 221.41L140.06 222.57L135.68 223.56L131.24 224.37L126.74 225.01L122.19 225.48L117.58 225.76L112.92 225.85L108.27 225.76L103.66 225.48L99.11 225.01L94.61 224.37L90.17 223.56L85.79 222.57L81.47 221.41L77.23 220.09L73.06 218.61L68.97 216.98L64.96 215.19L61.03 213.25L57.19 211.16L53.44 208.93L49.79 206.56L46.23 204.06L42.78 201.43L39.43 198.67L36.2 195.78L33.07 192.77L30.07 189.65L27.18 186.41L24.42 183.07L21.79 179.62L19.29 176.06L16.92 172.41L14.69 168.66L12.6 164.82L10.66 160.89L8.87 156.88L7.24 152.79L5.76 148.62L4.44 144.37L3.28 140.06L2.29 135.68L1.48 131.24L0.84 126.74L0.37 122.19L0.09 117.58L0 112.92L0.09 108.27L0.37 103.66L0.84 99.11L1.48 94.61L2.29 90.17L3.28 85.79L4.44 81.47L5.76 77.23L7.24 73.06L8.87 68.97L10.66 64.96L12.6 61.03L14.69 57.19L16.92 53.44L19.29 49.79L21.79 46.23L24.42 42.78L27.18 39.43L30.07 36.2L33.07 33.07L36.2 30.07L39.43 27.18L42.78 24.42L46.23 21.79L49.79 19.29L53.44 16.92L57.19 14.69L61.03 12.6L64.96 10.66L68.97 8.87L73.06 7.24L77.23 5.76L81.47 4.44L85.79 3.28L90.17 2.29L94.61 1.48L99.11 0.84L103.66 0.37L108.27 0.09L112.92 0L117.58 0.09L122.19 0.37ZM114.39 187.74L159.02 124.61L114.39 150.74L114.39 187.74ZM111.49 150.74L66.87 124.61L111.49 187.74L111.49 150.74ZM111.49 141.49L111.49 95.49L66.53 115.19L111.49 141.49ZM159.32 115.17L114.39 95.49L114.39 141.49L159.32 115.17ZM111.49 92.33L111.49 38.3L67.4 111.65L111.49 92.33ZM157.87 111.37L114.39 38.32L114.39 92.33L157.87 111.37Z" id="b2GXB4MtHW"></path></defs><g><g><g><use xlink:href="#b2GXB4MtHW" opacity="1" fill="#ffffff" fill-opacity="1"></use><g><use xlink:href="#b2GXB4MtHW" opacity="1" fill-opacity="0" stroke="#000000" stroke-width="1" stroke-opacity="0"></use></g></g></g></g></svg>